<?xml version="1.0" encoding="utf-8"?>
<!-- SVG Export Plug-In)  -->
<svg version="1.1" xmlns="http://www.w3.org/2000/svg" xmlns:xlink="http://www.w3.org/1999/xlink" x="0px" y="0px"
	 viewBox="0 0 500 500" style="enable-background:new 0 0 500 500;" xml:space="preserve">
<style type="text/css">
	.st0{fill:#F2D388;}
	.st1{opacity:0.7;fill:#FFFFFF;}
	.st2{fill:none;stroke:#263238;stroke-linecap:round;stroke-linejoin:round;stroke-miterlimit:10;}
	.st3{fill:#B1AFFF;}
	.st4{fill:#FFFFFF;stroke:#263238;stroke-linecap:round;stroke-linejoin:round;stroke-miterlimit:10;}
	.st5{fill:#FFFFFF;}
	.st6{display:none;}
	.st7{display:inline;fill:#92E3A9;}
	.st8{display:inline;}
	.st9{fill:#FFFFFF;stroke:#999999;stroke-width:0.5;stroke-miterlimit:10;}
	.st10{fill:#E8E8E8;}
	.st11{fill:#FFFFFF;stroke:#999999;stroke-miterlimit:10;}
	.st12{fill:none;stroke:#999999;stroke-miterlimit:10;}
	.st13{fill:none;stroke:#92E3A9;stroke-miterlimit:10;}
	.st14{fill:#263238;}
	.st15{fill:none;stroke:#999999;stroke-width:0.5;stroke-miterlimit:10;}
	.st16{fill:#92E3A9;}
	.st17{fill:none;stroke:#263238;stroke-miterlimit:10;}
	.st18{display:inline;fill:none;stroke:#000000;stroke-miterlimit:10;}
	.st19{fill:#92E3A9;stroke:#999999;stroke-width:0.5;stroke-miterlimit:10;}
	.st20{fill:none;stroke:#263238;stroke-width:0.8211;stroke-linecap:round;stroke-linejoin:round;stroke-miterlimit:10;}
	.st21{fill:#263238;stroke:#263238;stroke-width:0.7251;stroke-linecap:round;stroke-linejoin:round;stroke-miterlimit:10;}
	.st22{fill:#263238;stroke:#263238;stroke-width:0.8831;stroke-linecap:round;stroke-linejoin:round;stroke-miterlimit:10;}
	.st23{fill:#263238;stroke:#263238;stroke-linecap:round;stroke-linejoin:round;stroke-miterlimit:10;}
	.st24{opacity:0.25;}
	.st25{opacity:0.6;}
	.st26{fill:#F29393;}
	.st27{opacity:0.3;}
	.st28{fill:#B1AFFF;stroke:#263238;stroke-miterlimit:10;}
	.st29{fill:none;stroke:#FFFFFF;stroke-miterlimit:10;}
	.st30{fill:none;stroke:#263238;stroke-width:2;stroke-linecap:round;stroke-linejoin:round;stroke-miterlimit:10;}
</style>
<g id="Background_Simple">
	<g>
		<path class="st0" d="M36.6,155.9c0,0,19.2-81.4,95.1-121c75.9-39.6,166.3-22.7,240-11.1c73.6,11.6,120.5,68,115.5,135.6
			c-5,67.6-64.4,74-109.8,141.8c-45.4,67.8-47.7,93-120.8,124.2c-73.1,31.2-166.9-20.1-203-111C17.5,223.6,36.6,155.9,36.6,155.9z"
			/>
		<path class="st1" d="M36.6,155.9c0,0,19.2-81.4,95.1-121c75.9-39.6,166.3-22.7,240-11.1c73.6,11.6,120.5,68,115.5,135.6
			c-5,67.6-64.4,74-109.8,141.8c-45.4,67.8-47.7,93-120.8,124.2c-73.1,31.2-166.9-20.1-203-111C17.5,223.6,36.6,155.9,36.6,155.9z"
			/>
	</g>
</g>
<g id="Plants_1_">
	<g>
		<g>
			<g>
				<path class="st0" d="M83.7,266.7c0,0,2.1,3.9,0.2,7.5c-1.8,3.7-4.1,7.3-2.7,9.2c1.4,1.8,5.5,4.1,5,8c-0.5,3.9-5.9,11.7-2.5,16
					c3.4,4.3,9.2,4.1,9.4,8.9c0.2,4.8-5.5,8.7-3.9,13c1.6,4.3,11,5.3,11,8.2c0,3-3.7,6.2-0.7,9.4c3,3.2,17.4,11.6,19.4,8.1
					c2.1-3.4,6.2-12.9,3.5-26.4c-0.5-2.3-3.7-2.8-4.1-6c-0.5-3.2,0.9-8.9-1.4-12.1c-2.3-3.2-9.6-4.3-10.1-6.9
					c-0.5-2.5,2.7-8.7-0.5-12.6c-3.2-3.9-10.8-5.7-10.8-8.2c0-2.5,2.3-5.7-0.9-9.2C91.5,270.4,83.7,266.7,83.7,266.7z"/>
				<path class="st2" d="M117.4,354.3c1.4,4.4,2.5,8.8,3.3,13.8c1.8,11.4,2.8,88,2.8,88"/>
				<path class="st2" d="M94.7,293.7c4.8,14.4,13.1,33.9,16.5,43.3c2.3,6.4,4.4,11.8,6.2,17.3"/>
				<path class="st2" d="M84.9,268.1c0,0,3.9,3.2,7.3,17.2c0.2,0.9,0.5,1.9,0.8,2.8"/>
			</g>
		</g>
		<g>
			<g>
				<path class="st3" d="M155.2,292.8c0,0-1.6,3.1-0.2,6c1.5,2.9,3.3,5.9,2.2,7.3c-1.1,1.5-4.4,3.3-4,6.4c0.4,3.1,4.8,9.3,2,12.8
					c-2.7,3.5-7.3,3.3-7.5,7.1c-0.2,3.8,4.4,7,3.1,10.4c-1.3,3.5-8.8,4.2-8.8,6.6c0,2.4,2.9,4.9,0.5,7.5c-2.4,2.6-13.9,9.2-15.5,6.5
					c-1.6-2.7-5-10.3-2.8-21.1c0.4-1.8,2.9-2.2,3.3-4.8c0.4-2.6-0.7-7.1,1.1-9.7c1.8-2.6,7.7-3.5,8.1-5.5c0.4-2-2.2-7,0.4-10.1
					c2.6-3.1,8.6-4.6,8.6-6.6c0-2-1.8-4.6,0.7-7.3C149,295.7,155.2,292.8,155.2,292.8z"/>
				<path class="st2" d="M128.8,361.5c-1.3,3.9-2.4,7.9-3.1,12.5c-1.5,9.2-2.3,70.5-2.3,70.5"/>
				<path class="st2" d="M146.5,314.4c-3.8,11.5-10.5,27.1-13.2,34.6c-1.6,4.6-3.2,8.5-4.5,12.5"/>
				<path class="st2" d="M154.3,293.9c0,0-3.1,2.6-5.9,13.7c-0.2,0.7-0.4,1.5-0.6,2.3"/>
			</g>
		</g>
		<g>
			<g>
				<path class="st3" d="M92.3,344.6c0,0,1.4,2.6,0.2,5c-1.2,2.4-2.8,4.9-1.8,6.1c0.9,1.2,3.7,2.8,3.4,5.4c-0.3,2.6-4,7.8-1.7,10.7
					c2.3,2.9,6.1,2.8,6.3,6c0.2,3.2-3.7,5.8-2.6,8.7c1.1,2.9,7.3,3.5,7.3,5.5s-2.4,4.1-0.5,6.3c2,2.1,11.6,7.7,13,5.4
					c1.4-2.3,4.1-8.6,2.3-17.7c-0.3-1.5-2.5-1.9-2.8-4c-0.3-2.1,0.6-6-0.9-8.1c-1.5-2.1-6.4-2.9-6.7-4.6c-0.3-1.7,1.8-5.8-0.3-8.4
					c-2.1-2.6-7.2-3.8-7.2-5.5c0-1.7,1.5-3.8-0.6-6.1C97.5,347.1,92.3,344.6,92.3,344.6z"/>
				<path class="st2" d="M114.2,401.5c1.2,3.5,2.2,6.9,2.8,11c1.2,7.6,1.9,36,1.9,36"/>
				<path class="st2" d="M99.6,362.7c3.2,9.6,8.8,22.6,11,28.9c1.3,3.6,2.5,6.7,3.6,9.9"/>
				<path class="st2" d="M93,345.6c0,0,2.6,2.1,4.9,11.5c0.1,0.6,0.3,1.2,0.5,1.9"/>
			</g>
		</g>
		<g>
			<g>
				<path class="st0" d="M171.1,340.8c0,0-1.9,2.2-1.3,4.9c0.6,2.7,1.6,5.4,0.4,6.4c-1.2,1-4.2,1.8-4.5,4.4
					c-0.3,2.6,2.1,8.5-0.8,10.8c-2.9,2.3-6.6,1.3-7.5,4.4c-0.9,3.1,2.2,6.5,0.5,9.1c-1.7,2.6-8,1.7-8.4,3.7c-0.5,1.9,1.4,4.6-1,6.2
					c-2.4,1.6-13.1,4.9-13.9,2.3c-0.8-2.5-2.1-9.4,1.8-17.7c0.6-1.4,2.8-1.2,3.6-3.3c0.8-2,0.8-5.9,2.7-7.7c2-1.7,6.9-1.4,7.6-2.9
					c0.7-1.6-0.5-6.1,2.2-8.1s7.9-2.1,8.3-3.7c0.4-1.6-0.6-4.1,2-5.8C165.4,342,171.1,340.8,171.1,340.8z"/>
				<path class="st2" d="M135.9,391.3c-2.1,3-3.8,6-4.4,9.9c-1.2,7.6-1.9,36-1.9,36"/>
				<path class="st2" d="M159.8,356.7c-5.3,8.6-13.7,20-17.4,25.6c-2.2,3.3-4.6,6.1-6.6,8.9"/>
				<path class="st2" d="M170.1,341.6c0,0-3,1.5-7.4,10c-0.3,0.6-0.6,1.1-0.9,1.7"/>
			</g>
		</g>
		<g>
			<path class="st4" d="M116.7,464.8h17c9-4.6,15.3-16.3,15.3-30c0-9-2.7-17.1-7.2-22.9h-33.3c-4.4,5.8-7.2,13.9-7.2,22.9
				C101.4,448.5,107.8,460.2,116.7,464.8z"/>
			<path class="st2" d="M101.7,432.4c0,0,16.7-20.4,18.5-13.4c2.7,10.4-14.2,25.2-6.9,24.3c7.3-0.9,31.2-23.4,26.1-11.5
				c-5,11.9-18.3,22.5-9.6,21.1c8.7-1.4,14.2-15.6,14.2-7.3c0,8.3-2.3,12-2.3,12"/>
			<path class="st2" d="M106.9,453.9c0,0,18.8-7.3,14.2-1.8c-4.6,5.5-5.5,9.6-2.3,9.6c3.2,0,10.6-4.1,9.6-0.9c-0.9,3.2-2,3.9-2,3.9"
				/>
			<path class="st2" d="M128.5,412.1c0,0-6.9,11.5-1.8,10.6c5-0.9,15.1-10.1,14.2-4.1c-0.9,6,1.4,8.3,5.5,3.7"/>
			<rect x="116.7" y="464.8" class="st4" width="17.3" height="2.5"/>
		</g>
	</g>
</g>
<g id="Device">
	<g>
		<g>
			<path class="st5" d="M334.4,57.4h-70.6l-2.9,5.4c-3.1,5.8-9.3,9.4-16,9.4c-6.7,0-12.9-3.6-16-9.4l-2.9-5.4h-70.6
				c-7.5,0-13.6,5.9-13.6,13.3v363.6c0,7.3,6.1,13.3,13.6,13.3h179.1c7.5,0,13.6-5.9,13.6-13.3V70.7C348,63.3,341.9,57.4,334.4,57.4
				z"/>
			<g class="st6">
				<rect x="148.4" y="79.3" class="st7" width="194.3" height="361.8"/>
				<g class="st8">
					<rect x="227.6" y="109" class="st9" width="109" height="77.3"/>
					<rect x="233" y="123.7" class="st10" width="61.9" height="9.8"/>
					<rect x="233" y="146.2" class="st10" width="61.9" height="9.8"/>
					<g>
						<rect x="233.8" y="173.9" class="st11" width="4.4" height="4.4"/>
						<line class="st12" x1="241.4" y1="176.8" x2="294.9" y2="176.8"/>
					</g>
					<g>
						<rect x="233.8" y="165.5" class="st11" width="4.4" height="4.4"/>
						<line class="st12" x1="241.4" y1="168.1" x2="277.4" y2="168.1"/>
						<polyline class="st13" points="234.7,167.2 235.7,168.3 237.1,166.7 						"/>
					</g>
					<g>
						<path class="st14" d="M235.4,117.6l-1.2-3.6h0.7l0.9,2.8l0.9-2.8h0.6l-1.2,3.6v2h-0.6V117.6z"/>
						<path class="st14" d="M237.5,115.3c0-0.9,0.4-1.4,1.3-1.4c0.9,0,1.3,0.6,1.3,1.4v2.9c0,0.9-0.4,1.4-1.3,1.4
							c-0.9,0-1.3-0.6-1.3-1.4V115.3z M238.1,118.3c0,0.5,0.2,0.8,0.7,0.8c0.5,0,0.7-0.3,0.7-0.8v-3c0-0.5-0.2-0.8-0.7-0.8
							c-0.5,0-0.7,0.3-0.7,0.8V118.3z"/>
						<path class="st14" d="M241.2,118.3c0,0.5,0.2,0.8,0.7,0.8c0.5,0,0.7-0.3,0.7-0.8V114h0.6v4.3c0,0.9-0.4,1.4-1.3,1.4
							c-0.9,0-1.3-0.6-1.3-1.4V114h0.6V118.3z"/>
						<path class="st14" d="M245,114c0.9,0,1.3,0.5,1.3,1.3v0.5c0,0.6-0.2,1-0.7,1.2c0.5,0.2,0.7,0.6,0.7,1.2v0.9
							c0,0.2,0,0.5,0.1,0.7h-0.6c-0.1-0.2-0.1-0.3-0.1-0.7v-0.9c0-0.6-0.3-0.8-0.8-0.8h-0.4v2.4h-0.6V114H245z M244.9,116.6
							c0.5,0,0.8-0.2,0.8-0.8v-0.5c0-0.5-0.2-0.8-0.7-0.8h-0.6v2.1H244.9z"/>
						<path class="st14" d="M248.8,118.5l-0.2,1.1H248l1.1-5.6h0.9l1.1,5.6h-0.6l-0.2-1.1H248.8z M248.9,117.9h1.3l-0.6-3.3
							L248.9,117.9z"/>
						<path class="st14" d="M254.1,115.3v0.5h-0.6v-0.5c0-0.5-0.2-0.8-0.7-0.8c-0.5,0-0.7,0.3-0.7,0.8v3c0,0.5,0.2,0.8,0.7,0.8
							c0.5,0,0.7-0.3,0.7-0.8v-0.7h0.6v0.7c0,0.9-0.4,1.4-1.3,1.4c-0.9,0-1.3-0.6-1.3-1.4v-2.9c0-0.9,0.4-1.4,1.3-1.4
							C253.7,113.9,254.1,114.5,254.1,115.3z"/>
						<path class="st14" d="M257.1,115.3v0.5h-0.6v-0.5c0-0.5-0.2-0.8-0.7-0.8c-0.5,0-0.7,0.3-0.7,0.8v3c0,0.5,0.2,0.8,0.7,0.8
							c0.5,0,0.7-0.3,0.7-0.8v-0.7h0.6v0.7c0,0.9-0.4,1.4-1.3,1.4c-0.9,0-1.3-0.6-1.3-1.4v-2.9c0-0.9,0.4-1.4,1.3-1.4
							C256.7,113.9,257.1,114.5,257.1,115.3z"/>
						<path class="st14" d="M257.7,115.3c0-0.9,0.4-1.4,1.3-1.4c0.9,0,1.3,0.6,1.3,1.4v2.9c0,0.9-0.4,1.4-1.3,1.4
							c-0.9,0-1.3-0.6-1.3-1.4V115.3z M258.3,118.3c0,0.5,0.2,0.8,0.7,0.8c0.5,0,0.7-0.3,0.7-0.8v-3c0-0.5-0.2-0.8-0.7-0.8
							c-0.5,0-0.7,0.3-0.7,0.8V118.3z"/>
						<path class="st14" d="M261.4,118.3c0,0.5,0.2,0.8,0.7,0.8c0.5,0,0.7-0.3,0.7-0.8V114h0.6v4.3c0,0.9-0.4,1.4-1.3,1.4
							c-0.9,0-1.3-0.6-1.3-1.4V114h0.6V118.3z"/>
						<path class="st14" d="M264.5,119.6H264V114h0.8l1.3,4.1V114h0.6v5.6H266l-1.4-4.6V119.6z"/>
						<path class="st14" d="M268.1,119.6v-5.1h-1V114h2.7v0.6h-1v5.1H268.1z"/>
					</g>
					<g>
						<path class="st14" d="M235.4,142.4l-1.2-3.6h0.7l0.9,2.8l0.9-2.8h0.6l-1.2,3.6v2h-0.6V142.4z"/>
						<path class="st14" d="M237.5,140.1c0-0.9,0.4-1.4,1.3-1.4c0.9,0,1.3,0.6,1.3,1.4v2.9c0,0.9-0.4,1.4-1.3,1.4
							c-0.9,0-1.3-0.6-1.3-1.4V140.1z M238.1,143.1c0,0.5,0.2,0.8,0.7,0.8c0.5,0,0.7-0.3,0.7-0.8v-3c0-0.5-0.2-0.8-0.7-0.8
							c-0.5,0-0.7,0.3-0.7,0.8V143.1z"/>
						<path class="st14" d="M241.2,143.1c0,0.5,0.2,0.8,0.7,0.8c0.5,0,0.7-0.3,0.7-0.8v-4.3h0.6v4.3c0,0.9-0.4,1.4-1.3,1.4
							c-0.9,0-1.3-0.6-1.3-1.4v-4.3h0.6V143.1z"/>
						<path class="st14" d="M245,138.8c0.9,0,1.3,0.5,1.3,1.3v0.5c0,0.6-0.2,1-0.7,1.2c0.5,0.2,0.7,0.6,0.7,1.2v0.9
							c0,0.2,0,0.5,0.1,0.7h-0.6c-0.1-0.2-0.1-0.3-0.1-0.7v-0.9c0-0.6-0.3-0.8-0.8-0.8h-0.4v2.4h-0.6v-5.6H245z M244.9,141.4
							c0.5,0,0.8-0.2,0.8-0.8v-0.5c0-0.5-0.2-0.8-0.7-0.8h-0.6v2.1H244.9z"/>
						<path class="st14" d="M250.2,141.3v0.6h-1.4v2h1.7v0.6h-2.3v-5.6h2.3v0.6h-1.7v1.9H250.2z"/>
						<path class="st14" d="M253.2,144.4h-0.6l-0.9-4.5v4.5h-0.5v-5.6h0.9l0.9,4.5l0.9-4.5h0.9v5.6h-0.6v-4.5L253.2,144.4z"/>
						<path class="st14" d="M255.9,143.3l-0.2,1.1h-0.6l1.1-5.6h0.9l1.1,5.6h-0.6l-0.2-1.1H255.9z M256,142.7h1.3l-0.6-3.3
							L256,142.7z"/>
						<path class="st14" d="M259.3,138.8v5.6h-0.6v-5.6H259.3z"/>
						<path class="st14" d="M260,144.4v-5.6h0.6v5.1h1.6v0.6H260z"/>
					</g>
				</g>
				<g class="st8">
					<rect x="227.6" y="285.7" class="st9" width="109" height="97.8"/>
					<g>
						<path class="st10" d="M269.8,415.6h-34.1c-1.5,0-2.7-1.2-2.7-2.7v-8c0-1.5,1.2-2.7,2.7-2.7h34.1c1.5,0,2.7,1.2,2.7,2.7v8
							C272.5,414.4,271.3,415.6,269.8,415.6z"/>
						<path class="st14" d="M322.4,415.6h-34.1c-1.5,0-2.7-1.2-2.7-2.7v-8c0-1.5,1.2-2.7,2.7-2.7h34.1c1.5,0,2.7,1.2,2.7,2.7v8
							C325.1,414.4,323.9,415.6,322.4,415.6z"/>
						<g>
							<path class="st5" d="M300.8,406.9v0.2H300v-0.2c0-0.6-0.2-1-0.8-1c-0.6,0-0.8,0.4-0.8,1c0,1.6,2.4,1.7,2.4,3.7
								c0,1.1-0.5,1.8-1.6,1.8c-1.1,0-1.6-0.7-1.6-1.8v-0.4h0.7v0.4c0,0.6,0.3,1,0.8,1c0.6,0,0.8-0.4,0.8-1c0-1.6-2.3-1.7-2.3-3.7
								c0-1.1,0.5-1.8,1.6-1.8C300.3,405.1,300.8,405.8,300.8,406.9z"/>
							<path class="st5" d="M302.3,410.8l-0.3,1.4h-0.7l1.3-7h1.1l1.3,7h-0.8l-0.3-1.4H302.3z M302.4,410.1h1.6l-0.8-4.1
								L302.4,410.1z"/>
							<path class="st5" d="M306,405.2l1.1,6.1l1.1-6.1h0.7l-1.3,7h-1.2l-1.3-7H306z"/>
							<path class="st5" d="M312.1,408.3v0.7h-1.7v2.5h2.1v0.7h-2.9v-7h2.9v0.7h-2.1v2.4H312.1z"/>
						</g>
						<g>
							<path class="st14" d="M245.3,406.9v0.6h-0.7v-0.7c0-0.6-0.3-1-0.8-1c-0.6,0-0.8,0.4-0.8,1v3.7c0,0.6,0.3,1,0.8,1
								c0.6,0,0.8-0.4,0.8-1v-0.9h0.7v0.9c0,1.1-0.5,1.8-1.6,1.8c-1.1,0-1.6-0.7-1.6-1.8v-3.6c0-1.1,0.5-1.8,1.6-1.8
								C244.8,405.1,245.3,405.8,245.3,406.9z"/>
							<path class="st14" d="M246.8,410.8l-0.3,1.4h-0.7l1.3-7h1.1l1.3,7h-0.8l-0.3-1.4H246.8z M246.9,410.1h1.6l-0.8-4.1
								L246.9,410.1z"/>
							<path class="st14" d="M250.9,412.2h-0.7v-7h1l1.6,5.1v-5.1h0.7v7h-0.8l-1.8-5.7V412.2z"/>
							<path class="st14" d="M257.4,406.9v0.6h-0.7v-0.7c0-0.6-0.3-1-0.8-1c-0.6,0-0.8,0.4-0.8,1v3.7c0,0.6,0.3,1,0.8,1
								c0.6,0,0.8-0.4,0.8-1v-0.9h0.7v0.9c0,1.1-0.5,1.8-1.6,1.8c-1.1,0-1.6-0.7-1.6-1.8v-3.6c0-1.1,0.5-1.8,1.6-1.8
								C256.9,405.1,257.4,405.8,257.4,406.9z"/>
							<path class="st14" d="M260.6,408.3v0.7h-1.7v2.5h2.1v0.7h-2.9v-7h2.9v0.7h-2.1v2.4H260.6z"/>
							<path class="st14" d="M261.7,412.2v-7h0.8v6.3h2v0.7H261.7z"/>
						</g>
					</g>
					<line class="st12" x1="233.4" y1="301.5" x2="307.3" y2="301.5"/>
					<line class="st12" x1="233.4" y1="367.2" x2="307.3" y2="367.2"/>
					<line class="st15" x1="232.3" y1="361.5" x2="332.4" y2="361.5"/>
					<g>
						<rect x="233.8" y="311.7" class="st11" width="4.4" height="4.4"/>
						<line class="st12" x1="241.4" y1="314.2" x2="277.4" y2="314.2"/>
						<polyline class="st13" points="234.7,313.3 235.7,314.4 237.1,312.8 						"/>
					</g>
					<g>
						<rect x="233.8" y="323.7" class="st11" width="4.4" height="4.4"/>
						<line class="st12" x1="241.4" y1="326.3" x2="291.3" y2="326.3"/>
					</g>
					<g>
						<rect x="233.8" y="335.8" class="st11" width="4.4" height="4.4"/>
						<line class="st12" x1="241.4" y1="338.4" x2="277.4" y2="338.4"/>
						<polyline class="st13" points="234.7,337.5 235.7,338.6 237.1,337 						"/>
					</g>
					<g>
						<rect x="233.8" y="347.9" class="st11" width="4.4" height="4.4"/>
						<line class="st12" x1="241.4" y1="350.4" x2="297.4" y2="350.4"/>
					</g>
					<g>
						<path class="st14" d="M235.7,292.3c0.9,0,1.3,0.5,1.3,1.4v2.8c0,0.9-0.4,1.4-1.3,1.4h-1.3v-5.6H235.7z M235.7,297.4
							c0.5,0,0.7-0.3,0.7-0.8v-2.9c0-0.5-0.2-0.8-0.7-0.8H235v4.5H235.7z"/>
						<path class="st14" d="M239.6,294.8v0.6h-1.4v2h1.7v0.6h-2.3v-5.6h2.3v0.6h-1.7v1.9H239.6z"/>
						<path class="st14" d="M240.4,298v-5.6h0.6v5.1h1.6v0.6H240.4z"/>
						<path class="st14" d="M245.2,294.8v0.6h-1.4v2h1.7v0.6h-2.3v-5.6h2.3v0.6h-1.7v1.9H245.2z"/>
						<path class="st14" d="M246.9,298v-5.1h-1v-0.6h2.7v0.6h-1v5.1H246.9z"/>
						<path class="st14" d="M251,294.8v0.6h-1.4v2h1.7v0.6H249v-5.6h2.3v0.6h-1.7v1.9H251z"/>
						<path class="st14" d="M253.8,296.9l-0.2,1.1H253l1.1-5.6h0.9l1.1,5.6h-0.6l-0.2-1.1H253.8z M253.8,296.3h1.3l-0.6-3.3
							L253.8,296.3z"/>
						<path class="st14" d="M259,293.7v0.5h-0.6v-0.5c0-0.5-0.2-0.8-0.7-0.8c-0.5,0-0.7,0.3-0.7,0.8v3c0,0.5,0.2,0.8,0.7,0.8
							c0.5,0,0.7-0.3,0.7-0.8v-0.7h0.6v0.7c0,0.9-0.4,1.4-1.3,1.4c-0.9,0-1.3-0.6-1.3-1.4v-2.9c0-0.9,0.4-1.4,1.3-1.4
							C258.6,292.3,259,292.9,259,293.7z"/>
						<path class="st14" d="M262.1,293.7v0.5h-0.6v-0.5c0-0.5-0.2-0.8-0.7-0.8c-0.5,0-0.7,0.3-0.7,0.8v3c0,0.5,0.2,0.8,0.7,0.8
							c0.5,0,0.7-0.3,0.7-0.8v-0.7h0.6v0.7c0,0.9-0.4,1.4-1.3,1.4c-0.9,0-1.3-0.6-1.3-1.4v-2.9c0-0.9,0.4-1.4,1.3-1.4
							C261.7,292.3,262.1,292.9,262.1,293.7z"/>
						<path class="st14" d="M262.6,293.7c0-0.9,0.4-1.4,1.3-1.4c0.9,0,1.3,0.6,1.3,1.4v2.9c0,0.9-0.4,1.4-1.3,1.4
							c-0.9,0-1.3-0.6-1.3-1.4V293.7z M263.2,296.7c0,0.5,0.2,0.8,0.7,0.8c0.5,0,0.7-0.3,0.7-0.8v-3c0-0.5-0.2-0.8-0.7-0.8
							c-0.5,0-0.7,0.3-0.7,0.8V296.7z"/>
						<path class="st14" d="M266.4,296.7c0,0.5,0.2,0.8,0.7,0.8c0.5,0,0.7-0.3,0.7-0.8v-4.3h0.6v4.3c0,0.9-0.4,1.4-1.3,1.4
							c-0.9,0-1.3-0.6-1.3-1.4v-4.3h0.6V296.7z"/>
						<path class="st14" d="M269.4,298h-0.6v-5.6h0.8l1.3,4.1v-4.1h0.6v5.6h-0.7l-1.4-4.6V298z"/>
						<path class="st14" d="M273,298v-5.1h-1v-0.6h2.7v0.6h-1v5.1H273z"/>
					</g>
					<line class="st12" x1="233.4" y1="372.2" x2="307.3" y2="372.2"/>
				</g>
				<g class="st8">
					<rect x="227.6" y="197.4" class="st9" width="109" height="77.3"/>
					<circle class="st10" cx="240.7" cy="226.5" r="3.5"/>
					<path class="st16" d="M271.1,226.5c0,1.9-1.5,3.5-3.5,3.5c-1.9,0-3.5-1.5-3.5-3.5c0-1.9,1.5-3.5,3.5-3.5
						C269.5,223,271.1,224.6,271.1,226.5z"/>
					<line class="st12" x1="233.4" y1="252.5" x2="307.3" y2="252.5"/>
					<line class="st12" x1="233.4" y1="257.2" x2="307.3" y2="257.2"/>
					<line class="st12" x1="233.4" y1="261.9" x2="307.3" y2="261.9"/>
					<line class="st12" x1="233.4" y1="266.7" x2="307.3" y2="266.7"/>
					<rect x="231.9" y="212.8" class="st15" width="100.4" height="23.7"/>
					<line class="st12" x1="246.5" y1="227" x2="259.2" y2="227"/>
					<line class="st12" x1="274.9" y1="227" x2="300.4" y2="227"/>
					<line class="st15" x1="232.3" y1="247.8" x2="332.4" y2="247.8"/>
					<g>
						<path class="st14" d="M236.4,204.9v0.6H235v2h1.7v0.6h-2.3v-5.6h2.3v0.6H235v1.9H236.4z"/>
						<path class="st14" d="M239.3,208h-0.6l-0.9-4.5v4.5h-0.5v-5.6h0.9l0.9,4.5l0.9-4.5h0.9v5.6h-0.6v-4.5L239.3,208z"/>
						<path class="st14" d="M242.1,206.9l-0.2,1.1h-0.6l1.1-5.6h0.9l1.1,5.6h-0.6l-0.2-1.1H242.1z M242.2,206.4h1.3l-0.6-3.3
							L242.2,206.4z"/>
						<path class="st14" d="M245.5,202.4v5.6h-0.6v-5.6H245.5z"/>
						<path class="st14" d="M246.1,208v-5.6h0.6v5.1h1.6v0.6H246.1z"/>
						<path class="st14" d="M250.7,208h-0.6v-5.6h0.8l1.3,4.1v-4.1h0.6v5.6h-0.7l-1.4-4.6V208z"/>
						<path class="st14" d="M253.4,203.8c0-0.9,0.4-1.4,1.3-1.4c0.9,0,1.3,0.6,1.3,1.4v2.9c0,0.9-0.4,1.4-1.3,1.4
							c-0.9,0-1.3-0.6-1.3-1.4V203.8z M254,206.7c0,0.5,0.2,0.8,0.7,0.8c0.5,0,0.7-0.3,0.7-0.8v-3c0-0.5-0.2-0.8-0.7-0.8
							c-0.5,0-0.7,0.3-0.7,0.8V206.7z"/>
						<path class="st14" d="M257.4,208V203h-1v-0.6h2.7v0.6h-1v5.1H257.4z"/>
						<path class="st14" d="M260.1,202.4v5.6h-0.6v-5.6H260.1z"/>
						<path class="st14" d="M262.6,205v0.6h-1.3v2.4h-0.6v-5.6h2.2v0.6h-1.6v2.1H262.6z"/>
						<path class="st14" d="M264.1,202.4v5.6h-0.6v-5.6H264.1z"/>
						<path class="st14" d="M267.2,203.8v0.5h-0.6v-0.5c0-0.5-0.2-0.8-0.7-0.8c-0.5,0-0.7,0.3-0.7,0.8v3c0,0.5,0.2,0.8,0.7,0.8
							c0.5,0,0.7-0.3,0.7-0.8V206h0.6v0.7c0,0.9-0.4,1.4-1.3,1.4c-0.9,0-1.3-0.6-1.3-1.4v-2.9c0-0.9,0.4-1.4,1.3-1.4
							C266.8,202.3,267.2,202.9,267.2,203.8z"/>
						<path class="st14" d="M268.4,206.9l-0.2,1.1h-0.6l1.1-5.6h0.9l1.1,5.6h-0.6l-0.2-1.1H268.4z M268.5,206.4h1.3l-0.6-3.3
							L268.5,206.4z"/>
						<path class="st14" d="M271.7,208V203h-1v-0.6h2.7v0.6h-1v5.1H271.7z"/>
						<path class="st14" d="M274.4,202.4v5.6h-0.6v-5.6H274.4z"/>
						<path class="st14" d="M275,203.8c0-0.9,0.4-1.4,1.3-1.4c0.9,0,1.3,0.6,1.3,1.4v2.9c0,0.9-0.4,1.4-1.3,1.4
							c-0.9,0-1.3-0.6-1.3-1.4V203.8z M275.6,206.7c0,0.5,0.2,0.8,0.7,0.8c0.5,0,0.7-0.3,0.7-0.8v-3c0-0.5-0.2-0.8-0.7-0.8
							c-0.5,0-0.7,0.3-0.7,0.8V206.7z"/>
						<path class="st14" d="M278.8,208h-0.6v-5.6h0.8l1.3,4.1v-4.1h0.6v5.6h-0.7l-1.4-4.6V208z"/>
						<path class="st14" d="M283.9,203.8v0.2h-0.6v-0.2c0-0.5-0.2-0.8-0.6-0.8c-0.5,0-0.6,0.3-0.6,0.8c0,1.3,1.9,1.4,1.9,3
							c0,0.9-0.4,1.4-1.3,1.4c-0.9,0-1.3-0.6-1.3-1.4v-0.3h0.6v0.4c0,0.5,0.2,0.8,0.7,0.8s0.7-0.3,0.7-0.8c0-1.3-1.9-1.4-1.9-3
							c0-0.9,0.4-1.4,1.2-1.4C283.5,202.3,283.9,202.9,283.9,203.8z"/>
					</g>
				</g>
				<g class="st8">
					<g>
						<g>
							<path class="st14" d="M176.7,183.8v0.2h-0.7v-0.2c0-0.6-0.2-1-0.8-1c-0.6,0-0.8,0.4-0.8,1c0,1.6,2.3,1.7,2.3,3.7
								c0,1.1-0.5,1.7-1.6,1.7c-1.1,0-1.6-0.7-1.6-1.7V187h0.7v0.4c0,0.6,0.3,1,0.8,1c0.6,0,0.8-0.4,0.8-1c0-1.6-2.3-1.7-2.3-3.7
								c0-1.1,0.5-1.7,1.5-1.7C176.2,182,176.7,182.7,176.7,183.8z"/>
							<path class="st14" d="M179.8,185.2v0.7h-1.7v2.5h2.1v0.7h-2.9v-7h2.9v0.7h-2.1v2.4H179.8z"/>
							<path class="st14" d="M181.9,189.1v-6.3h-1.3v-0.7h3.3v0.7h-1.3v6.3H181.9z"/>
							<path class="st14" d="M185.5,189.1v-6.3h-1.3v-0.7h3.3v0.7h-1.3v6.3H185.5z"/>
							<path class="st14" d="M188.9,182.1v7h-0.8v-7H188.9z"/>
							<path class="st14" d="M190.4,189.1h-0.7v-7h1l1.6,5.1v-5.1h0.7v7h-0.8l-1.8-5.7V189.1z"/>
							<path class="st14" d="M196.9,183.8v0.6h-0.7v-0.6c0-0.6-0.2-1-0.8-1c-0.6,0-0.8,0.4-0.8,1v3.7c0,0.6,0.3,1,0.8,1
								c0.6,0,0.8-0.4,0.8-1V186h-0.7v-0.7h1.5v2.1c0,1.1-0.5,1.8-1.6,1.8c-1.1,0-1.6-0.7-1.6-1.8v-3.6c0-1.1,0.5-1.8,1.6-1.8
								C196.4,182,196.9,182.7,196.9,183.8z"/>
						</g>
						<g>
							<rect x="155.4" y="200.2" class="st9" width="59.9" height="111.2"/>
							<line class="st12" x1="159.7" y1="207.8" x2="187.1" y2="207.8"/>
							<line class="st12" x1="159.7" y1="224.2" x2="187.1" y2="224.2"/>
							<line class="st12" x1="159.7" y1="240.7" x2="198.5" y2="240.7"/>
							<line class="st12" x1="159.7" y1="257.1" x2="187.1" y2="257.1"/>
							<line class="st12" x1="159.7" y1="273.6" x2="180.8" y2="273.6"/>
							<line class="st12" x1="159.7" y1="290" x2="187.1" y2="290"/>
							<line class="st12" x1="159.7" y1="304.6" x2="196.1" y2="304.6"/>
							<line class="st15" x1="156" y1="216.3" x2="214.7" y2="216.3"/>
							<line class="st15" x1="156" y1="232.3" x2="214.7" y2="232.3"/>
							<line class="st15" x1="156" y1="248.3" x2="214.7" y2="248.3"/>
							<line class="st15" x1="156" y1="264.4" x2="214.7" y2="264.4"/>
							<line class="st15" x1="156" y1="280.4" x2="214.7" y2="280.4"/>
							<line class="st15" x1="156" y1="296.4" x2="214.7" y2="296.4"/>
						</g>
						<path class="st14" d="M171.2,185.7v-3h-2.3c-0.2-0.5-0.4-1-0.7-1.5l1.7-1.7l-2.1-2.1l-1.7,1.7c-0.4-0.2-0.9-0.4-1.4-0.6v-2.4
							h-3v2.4c-0.5,0.1-1,0.3-1.4,0.6l-1.7-1.7l-2.1,2.1l1.7,1.7c-0.3,0.4-0.5,0.9-0.7,1.5h-2.3v3h2.2c0.1,0.6,0.3,1.1,0.6,1.6
							l-1.5,1.5l2.1,2.1l1.5-1.5c0.5,0.3,1.1,0.6,1.6,0.7v2h3v-2c0.6-0.2,1.1-0.4,1.6-0.7l1.5,1.5l2.1-2.1l-1.5-1.5
							c0.3-0.5,0.5-1,0.6-1.6H171.2z M163.2,188.1c-2,0-3.7-1.7-3.7-3.7c0-2,1.7-3.7,3.7-3.7s3.7,1.7,3.7,3.7
							C166.9,186.5,165.2,188.1,163.2,188.1z"/>
					</g>
				</g>
				<g class="st8">
					<circle class="st17" cx="185.2" cy="133" r="24"/>
					<path class="st17" d="M171.2,126.1c1.1,5.9,9.3,10.4,7.8,13c-1.5,2.6-10.4,10.8-10.4,10.8s-0.1,0.1-0.1,0.2
						c4.3,4.2,10.3,6.9,16.8,6.9c13.2,0,24-10.7,24-24c0-13.2-10.7-24-24-24C185.2,109,170,120.2,171.2,126.1z"/>
					<path class="st17" d="M207.4,142.2c0,0-5.8-0.5-11-4.2c-5.2-3.7-9.3-16.3-9.3-16.3s-5.9,6.7-6.3,10.8c-0.4,4.1,0.7,11.1,3.3,16
						c2.6,4.8,6,6.8,9.7,6.8"/>
					<path class="st17" d="M186,137.6c0,0,0,1.9,0,4.8s1.5,3.7,4.1,3.7"/>
					<path class="st17" d="M189.3,149.5c0,0,5.2-0.4,7.1-4.1"/>
					<path class="st17" d="M192.3,137.8c0,1.3-0.5,2.4-1.1,2.4c-0.6,0-1.1-1.1-1.1-2.4c0-1.3,0.5-2.4,1.1-2.4
						C191.8,135.4,192.3,136.5,192.3,137.8z"/>
					<path class="st17" d="M184.9,137.4c0,1.3-0.5,2.4-1.1,2.4c-0.6,0-1.1-1.1-1.1-2.4c0-1.3,0.5-2.4,1.1-2.4
						C184.4,135,184.9,136.1,184.9,137.4z"/>
					<path class="st17" d="M180.8,132.4c0,0,3.3-1.9,4.8,1.9"/>
					<path class="st17" d="M188.6,132.4c0,0,1.9-0.7,3,0.4"/>
				</g>
				<line class="st18" x1="158.2" y1="163.1" x2="214.5" y2="163.1"/>
				<line class="st18" x1="158.2" y1="170.3" x2="214.5" y2="170.3"/>
				<g class="st8">
					<rect x="148.4" y="79.3" class="st14" width="194.3" height="17.7"/>
					<path class="st9" d="M201.3,91.6H184c-1.6,0-3-1.3-3-3V88c0-1.6,1.3-3,3-3h17.3c1.6,0,3,1.3,3,3v0.6
						C204.3,90.3,202.9,91.6,201.3,91.6z"/>
					<path class="st9" d="M229.6,91.6h-17.3c-1.6,0-3-1.3-3-3V88c0-1.6,1.3-3,3-3h17.3c1.6,0,3,1.3,3,3v0.6
						C232.6,90.3,231.3,91.6,229.6,91.6z"/>
					<path class="st9" d="M258,91.6h-17.3c-1.6,0-3-1.3-3-3V88c0-1.6,1.3-3,3-3H258c1.6,0,3,1.3,3,3v0.6
						C261,90.3,259.6,91.6,258,91.6z"/>
					<path class="st19" d="M286.3,91.6H269c-1.6,0-3-1.3-3-3V88c0-1.6,1.3-3,3-3h17.3c1.6,0,3,1.3,3,3v0.6
						C289.3,90.3,288,91.6,286.3,91.6z"/>
					<path class="st9" d="M320.7,87.6c0,2.7-2.2,4.8-4.8,4.8c-2.7,0-4.8-2.2-4.8-4.8c0-2.7,2.2-4.8,4.8-4.8
						C318.5,82.8,320.7,85,320.7,87.6z"/>
				</g>
			</g>
			<g>
				<rect x="319.6" y="62.6" class="st20" width="14.2" height="7.8"/>
				<rect x="319.6" y="62.6" class="st21" width="11.1" height="7.8"/>
				<rect x="333.8" y="64.8" class="st21" width="2" height="3.4"/>
			</g>
			<g>
				<rect x="153.4" y="65" class="st22" width="2.6" height="4.5"/>
				<rect x="157.5" y="63.5" class="st22" width="2.6" height="6"/>
				<rect x="161.6" y="61.6" class="st22" width="2.6" height="7.9"/>
			</g>
			<line class="st2" x1="148" y1="73.1" x2="341.7" y2="73.1"/>
		</g>
		<path class="st23" d="M358.1,182.3c0.8,0,1.4-0.6,1.4-1.4v-38.8c0-0.8-0.6-1.4-1.4-1.4h-3.8v-74c0-10.3-8.3-18.6-18.6-18.6H154
			c-10.3,0-18.6,8.3-18.6,18.6v382.1c0,10.3,8.3,18.6,18.6,18.6h181.7c10.3,0,18.6-8.3,18.6-18.6V215.7h3.8c0.8,0,1.4-0.6,1.4-1.4
			V197c0-0.8-0.6-1.4-1.4-1.4h-3.8v-13.2H358.1z M348,434.2c0,7.3-6.1,13.3-13.6,13.3H155.3c-7.5,0-13.6-5.9-13.6-13.3V70.7
			c0-7.3,6.1-13.3,13.6-13.3h70.6l2.9,5.4c3.1,5.8,9.3,9.4,16,9.4c6.7,0,12.9-3.6,16-9.4l2.9-5.4h70.6c7.5,0,13.6,5.9,13.6,13.3
			V434.2z"/>
		<path class="st4" d="M249.7,59.5c0-2.7-2.2-4.9-4.9-4.9c-2.7,0-4.9,2.2-4.9,4.9c0,2.7,2.2,4.9,4.9,4.9
			C247.5,64.3,249.7,62.2,249.7,59.5z"/>
	</g>
	<g>
		<g>
			<g>
				<g>
					<path class="st5" d="M93.9,463.6c-0.1,0.5-0.4,1-0.8,1.3c-0.7,0.5-1.7,0.5-2.6,0.5c-7-0.2-14-0.7-20.9-1.5
						c-1.1-3.1-1.5-6.4-0.7-9.6c5.1,0.3,10.1,0.7,15.1,1.6c0.6,0.1,1.1,0.2,1.7,0.3c1.7,0.4,3.5,0.8,5,1.7c1.5,0.9,2.8,2.4,3.2,4.1
						C94,462.5,94.1,463.1,93.9,463.6z"/>
				</g>
			</g>
		</g>
		<g class="st24">
			<g>
				<g>
					<path d="M93.9,463.6c-0.1,0.5-0.4,1-0.8,1.3c-0.7,0.5-1.7,0.5-2.6,0.5c-7-0.2-14-0.7-20.9-1.5c-1.1-3.1-1.5-6.4-0.7-9.6
						c5.1,0.3,10.1,0.7,15.1,1.6c-0.3,0.3-0.6,0.5-0.9,0.8c-0.5,0.5-0.3,1.3,0.4,1.4c1.2,0.2,2.9,0.6,4.1,1.3
						C89.2,460.3,91.6,463.9,93.9,463.6z"/>
				</g>
			</g>
		</g>
		<g>
			<g>
				<g>
					<path d="M91.1,466.1c-0.2,0-0.3,0-0.5,0c-6.8-0.2-13.8-0.7-21-1.5c-0.2,0-0.5-0.2-0.5-0.4c-1.2-3.5-1.5-6.9-0.7-10
						c0.1-0.3,0.4-0.5,0.7-0.5c5.6,0.4,11.3,0.7,16.9,1.9c1.8,0.4,3.6,0.8,5.2,1.8c1.8,1.1,3.1,2.8,3.5,4.5c0.2,1.1,0.1,2.6-1,3.5
						C92.8,466,91.9,466.1,91.1,466.1z M70.1,463.3c7,0.8,13.8,1.3,20.5,1.5c0.8,0,1.6,0,2.1-0.4c0.6-0.5,0.7-1.5,0.6-2.2
						c-0.3-1.4-1.3-2.8-2.9-3.7c-1.5-0.9-3.2-1.3-4.8-1.7c-5.3-1.1-10.8-1.5-16.1-1.9C68.9,457.5,69.2,460.4,70.1,463.3z"/>
				</g>
			</g>
		</g>
		<g>
			<g>
				<g>
					<path d="M90.6,461.1c0.4,0.2,0.7,0.4,0.9,0.7c0.2,0.3,0.4,0.7,0.6,1c0.3,0.7,0.3,1.5,0.3,2.2c0,0.3-0.2,0.6-0.5,0.6
						c-0.3,0-0.6-0.2-0.6-0.5c0,0,0-0.1,0-0.1c0.1-0.7,0.2-1.4,0.1-2c0-0.3-0.1-0.6-0.3-0.9c-0.2-0.3-0.4-0.5-0.6-0.7l0,0
						c-0.1-0.1-0.1-0.2,0-0.2C90.5,461.1,90.5,461,90.6,461.1z"/>
				</g>
			</g>
		</g>
		<g>
			<g>
				<g>
					<path class="st5" d="M89.6,465.1c-0.1,0.3-0.2,0.6-0.4,0.9c-0.5,0.8-1.5,1.6-2.5,1.9c-1.4,0.5-2.9,0.5-4.4,0.4
						c-3.1-0.1-6.3-0.2-9.4-0.2c-4.7-0.1-9.3-0.2-14-0.4c-1.2,0-2.3-0.1-3.5-0.1c-6.7-0.2-14-0.6-18.9-5.1c0.9,1.2,0.6,3.4-0.7,4.4
						c-1.2,1-3,1.2-4.6,1.1c-4.8-0.4-9.4-2.6-12.9-5.9c-3.5-3.3-6-7.6-7.6-12.1c-0.5-1.5-0.9-3.1-1.2-4.7c-0.4-2.3-0.6-4.5-0.5-6.8
						c0.1-2.4,0.5-4.7,1.2-7c1.1-3.3,2.9-6.5,5.4-9c0.1-0.1,0.2-0.2,0.3-0.3c1.9-1.9,4.1-3.4,6.5-4.4c0,0,0,0,0,0
						c-1.5-2.3-2.4-5-2.6-7.7c-0.1-1.8,0.1-3.7,0.5-5.5c1.2-4.4,4.1-8.3,7.7-11c2.6-1.9,5.7-3.4,8.9-3.6c0,0,0.1,0,0.1,0
						c3.3-0.2,6.7,0.9,9,3.3c0.7,0.8,1.3,1.7,1.7,2.7c0.7,1.7,0.8,3.5,0.3,5.2c-0.1,0.4-0.3,0.8-0.5,1.2c-0.8,1.5-2.1,2.7-3.8,3
						c-1.6,0.3-3.5-0.4-4.2-1.9c-0.7-1.4-0.3-3.1-1-4.4c-0.3-0.6-0.8-1-1.3-1.3c-1.6-0.8-4-0.5-5.6,0.6c-3,2-4.6,5.6-4.7,9.2
						c-0.1,3.3,0.9,6.5,2.7,9.4c0.2,0.2,0.3,0.5,0.5,0.7c0.1,0,0.1,0,0.2,0c4,0.2,7.6,2.5,10.5,5.4c0.7,0.7,1.3,1.4,1.8,2.1
						c0.6,0.8,1.2,1.6,1.7,2.4c1.2,1.9,2.3,3.9,3.3,5.9c0.8,1.6,1.7,3.1,2.6,4.6c0.2,0.3,0.3,0.5,0.5,0.8
						c4.4,7.5,9.6,16.6,18.3,18.3c4.9,0.9,9.9,1.9,14.8,2.8c1.4,0.3,2.8,0.5,3.9,1.3C88.9,462.4,89.8,463.8,89.6,465.1z"/>
				</g>
			</g>
		</g>
		<g>
			<g>
				<g>
					<path class="st0" d="M47.6,402.7c-0.8,1.5-2.1,2.7-3.8,3c-1.6,0.3-3.5-0.4-4.2-1.9c-0.7-1.4-0.3-3.1-1-4.4
						c-0.3-0.6-0.8-1-1.3-1.3c-0.1-0.1-0.1-0.1-0.2-0.2c-0.7-0.7-1.7-1-2.3-1.7c-1.2-1.2-1-3.4,0.1-4.7c0.6-0.6,1.3-1,2.1-1.2
						c0,0,0.1,0,0.1,0c3.3-0.2,6.7,0.9,9,3.3C48.4,396,49.1,399.8,47.6,402.7z"/>
				</g>
			</g>
		</g>
		<g class="st25">
			<g>
				<g>
					<path class="st5" d="M48.1,401.5c-0.7-4.1-3-10-11.3-9.3c-9.9,0.9-16.3,10.3-16.9,18.2c-0.1-1.8,0.1-3.7,0.5-5.5
						c1.2-4.4,4.1-8.3,7.7-11c2.6-1.9,5.7-3.4,8.9-3.6c0,0,0.1,0,0.1,0c3.3-0.2,6.7,0.9,9,3.3c0.7,0.8,1.3,1.7,1.7,2.7
						C48.5,397.9,48.6,399.8,48.1,401.5z"/>
				</g>
			</g>
		</g>
		<g>
			<g>
				<g>
					<path class="st0" d="M22.6,429c-0.8,2-2,3.8-2.5,5.9c-0.5,2.4,0.1,4.9-0.2,7.4c-0.2,2.1-1,4.2-2.5,5.5c-1.6,1.3-4,1.8-5.8,0.6
						c-1-0.7-1.7-1.7-2.1-2.9c-0.9-4.6-0.7-9.4,0.7-13.8c1.1-3.5,3.1-6.7,5.6-9.2c0,0,0,0,0,0c1.9-1.1,4.7-1.2,6.2,0.5
						C23.5,424.5,23.3,427,22.6,429z"/>
				</g>
			</g>
		</g>
		<g class="st25">
			<g>
				<g>
					<path class="st5" d="M22.4,418.1c-0.2,0.2-10.3,9.3-13.4,20.6c0.1-2.4,0.5-4.7,1.2-7c1.1-3.3,2.9-6.5,5.4-9
						c0.1-0.1,0.2-0.2,0.3-0.3C17.8,420.6,20,419.1,22.4,418.1z"/>
				</g>
			</g>
		</g>
		<g>
			<g>
				<g>
					<path class="st0" d="M47.7,436.7c-0.1,0.7-0.3,1.5-0.8,2c-0.8,0.8-2.2,0.9-3.2,0.3c-1-0.6-1.6-1.7-1.8-2.8
						c-0.2-1.1-0.1-2.3,0.1-3.4c0.2-1.1,0.4-2.3,0.5-3.4c0.1-2-0.5-4-1.4-5.8c0-0.1-0.1-0.2-0.1-0.3c0.7,0.7,1.3,1.4,1.8,2.1
						c2,2.6,3.5,5.5,5,8.4C47.8,434.8,47.9,435.8,47.7,436.7z"/>
				</g>
			</g>
		</g>
		<g class="st25">
			<g>
				<g>
					<path class="st5" d="M50.7,439.3l-0.1,3.1c0,0-3.9-5.3-8-13.4c-3.9-7.6-12.4-11-12.4-11c4.1,0.2,7.8,2.4,10.6,5.4
						c0.7,0.7,1.3,1.4,1.8,2.1c2,2.6,3.5,5.5,5,8.4c0.8,1.6,1.7,3.1,2.6,4.6C50.4,438.7,50.5,439,50.7,439.3z"/>
				</g>
			</g>
		</g>
		<g>
			<g>
				<g>
					<path class="st0" d="M72.8,468.2c-4.7-0.1-9.3-0.2-14-0.4c-1.6-0.6-3.1-1.4-4.5-2.2c0.4-1.5,1.8-2.5,3.2-2.8
						c1.4-0.2,2.8,0.1,4.2,0.4c1.4,0.3,2.8,0.6,4.2,0.1c0.7-0.2,1.3-0.6,2.1-0.8c1.8-0.4,3.5,1,4.3,2.6
						C72.6,466.2,72.8,467.2,72.8,468.2z"/>
				</g>
			</g>
		</g>
		<g>
			<g>
				<g>
					<path d="M83.4,469.1c-0.4,0-0.8,0-1.2,0c-3-0.1-6-0.2-9-0.2l-17.9-0.4c-6.6-0.2-12.9-0.6-17.7-4c0,1.2-0.5,2.4-1.4,3.2
						c-1.2,1-2.8,1.4-5.1,1.2c-4.8-0.4-9.5-2.5-13.3-6c-3.4-3.2-6-7.4-7.7-12.4c-0.5-1.6-0.9-3.2-1.2-4.7c-0.9-4.9-0.7-9.8,0.8-14.2
						c1.2-3.6,3.2-6.9,5.8-9.5c1.8-1.8,3.8-3.2,6-4.2c-2.3-3.8-2.9-8.6-1.7-13.1c1.2-4.4,4-8.4,8-11.4c3-2.2,6.1-3.5,9.2-3.8l0.2,0
						c3.7-0.3,7.2,1,9.5,3.5c2.5,2.7,3.2,6.8,1.6,9.9c-0.9,1.8-2.5,3-4.2,3.4c-2,0.4-4.1-0.6-4.9-2.3c-0.4-0.8-0.5-1.6-0.6-2.4
						c-0.1-0.7-0.2-1.4-0.5-2c-0.2-0.4-0.6-0.8-1.1-1c-1.3-0.7-3.4-0.5-4.9,0.5c-2.6,1.7-4.3,5-4.4,8.6c-0.1,3.2,0.9,6.5,2.9,9.4
						c4.7,0.3,8.4,3.2,10.7,5.6c0.7,0.7,1.3,1.4,1.9,2.2c2,2.6,3.5,5.5,5,8.3l0.1,0.1c0.8,1.5,1.6,3.1,2.5,4.6
						c0.3,0.5,0.6,0.9,0.8,1.4c4.4,7.4,9.3,15.8,17.5,17.3l14.8,2.8c1.3,0.3,2.9,0.5,4.2,1.4c1.5,1,2.4,2.6,2.1,4.1c0,0,0,0,0,0
						c-0.3,1.4-1.6,2.8-3.3,3.4C85.8,469,84.6,469.1,83.4,469.1z M36.5,462.1c0.2,0,0.3,0.1,0.4,0.2c4.6,4.2,11.4,4.7,18.5,4.9
						l17.9,0.4c3,0.1,6,0.1,9,0.2c1.4,0,2.9,0.1,4.2-0.4c1.3-0.4,2.3-1.5,2.5-2.4c0.2-1.2-0.7-2.3-1.6-2.8c-1.1-0.7-2.4-1-3.7-1.2
						l-14.8-2.8c-8.8-1.7-13.9-10.3-18.4-18c-0.3-0.5-0.6-0.9-0.8-1.4c-0.9-1.5-1.8-3.1-2.6-4.7l-0.1-0.1c-1.5-2.8-3-5.6-4.9-8.2
						c-0.6-0.7-1.2-1.4-1.8-2.1c-2.2-2.3-5.7-5.1-10.2-5.2c-0.2,0-0.4-0.1-0.5-0.3c-2.3-3.2-3.5-6.8-3.3-10.5c0.1-4,2.1-7.7,5-9.7
						c1.9-1.3,4.5-1.5,6.2-0.6c0.7,0.4,1.2,0.9,1.6,1.6c0.4,0.8,0.5,1.7,0.6,2.5c0.1,0.7,0.2,1.4,0.4,2c0.6,1.2,2.1,1.9,3.5,1.6
						c1.3-0.3,2.6-1.3,3.3-2.7c1.3-2.6,0.7-6.1-1.4-8.4c-2-2.2-5.2-3.3-8.5-3.1l-0.1,0c-2.8,0.2-5.8,1.4-8.6,3.5
						c-3.7,2.8-6.4,6.6-7.5,10.7c-1.2,4.4-0.4,9.1,1.9,12.7c0.1,0.2,0.1,0.4,0.1,0.5c-0.1,0.2-0.2,0.3-0.4,0.4
						c-2.3,0.9-4.4,2.4-6.3,4.2c-2.5,2.5-4.4,5.6-5.5,9c-1.3,4.1-1.6,8.8-0.7,13.5c0.3,1.5,0.7,3.1,1.2,4.6
						c1.6,4.7,4.2,8.8,7.4,11.9c3.6,3.4,8,5.4,12.5,5.7c1.9,0.1,3.3-0.2,4.2-0.9c1-0.8,1.3-2.7,0.6-3.6c-0.2-0.3-0.2-0.6,0.1-0.9
						C36.1,462.1,36.3,462.1,36.5,462.1z M89.6,465.1L89.6,465.1L89.6,465.1z"/>
				</g>
			</g>
		</g>
		<g>
			<g>
				<g>
					<path d="M34,428.8c0.9,1.5,1.6,3.2,1.9,5c0.3,1.8,0.3,3.6-0.1,5.4c-0.3,1.8-1,3.5-1.9,5c-0.9,1.6-2.1,3-3.4,4.2l0.2-0.4
						c-0.1,1-0.2,1.9-0.3,2.9c0,1,0,1.9,0.1,2.9c0.2,1.9,0.6,3.8,1.3,5.6l-0.5-0.4c1.1,0.2,2.2,0.6,3.2,1.2c1,0.6,1.8,1.3,2.5,2.3
						c0.2,0.2,0.1,0.6-0.1,0.8c-0.2,0.2-0.6,0.1-0.8-0.1l0,0c-0.6-0.8-1.3-1.4-2.2-1.9c-0.9-0.5-1.8-0.8-2.8-1
						c-0.2,0-0.4-0.2-0.5-0.4l0,0c-0.4-0.9-0.7-1.9-0.9-2.9c-0.2-1-0.4-2-0.5-3c-0.1-1-0.1-2-0.1-3.1c0-1,0.1-2,0.3-3l0,0
						c0-0.1,0.1-0.3,0.2-0.3c2.5-2.2,4.4-5.2,5.1-8.5c0.3-1.6,0.4-3.3,0.2-5c-0.2-1.7-0.7-3.3-1.3-4.9c-0.1-0.1,0-0.3,0.1-0.3
						C33.8,428.7,34,428.7,34,428.8z"/>
				</g>
			</g>
		</g>
		<g>
			<g>
				<g>
					<path d="M46.5,453.2c0,2.1,0.6,4.2,1.7,6c0.5,0.9,1.2,1.7,1.9,2.5c0.7,0.8,1.5,1.5,2.3,2.1c0.4,0.3,0.9,0.6,1.3,0.9
						c0.5,0.3,0.9,0.5,1.4,0.7c1,0.4,2,0.8,3,1.1c1,0.3,2.1,0.5,3.1,0.7c0.5,0.1,1.1,0.1,1.6,0.2c0.5,0,1.1,0.1,1.6,0.1l0,0
						c0.3,0,0.5,0.3,0.5,0.6c0,0.3-0.2,0.5-0.5,0.5c-0.6,0-1.1,0-1.7,0c-0.6,0-1.1-0.1-1.7-0.2c-1.1-0.1-2.2-0.4-3.3-0.7
						c-1.1-0.3-2.1-0.7-3.2-1.1c-0.5-0.2-1-0.5-1.5-0.8c-0.5-0.3-1-0.6-1.4-1c-0.9-0.7-1.7-1.5-2.4-2.3c-0.7-0.8-1.4-1.8-1.9-2.8
						c-0.5-1-1-2.1-1.2-3.2c0-0.1-0.1-0.3-0.1-0.4l-0.1-0.4c0-0.3,0-0.6-0.1-0.8c0-0.3,0-0.6,0-0.8c0-0.3,0.1-0.6,0.1-0.8
						c0-0.1,0.1-0.2,0.2-0.2C46.4,453,46.5,453.1,46.5,453.2L46.5,453.2z"/>
				</g>
			</g>
		</g>
		<g>
			<g>
				<g>
					<path d="M86.3,463.4c1.1,1.1,1.8,2.7,1.6,4.3l0,0c0,0.3-0.3,0.5-0.6,0.5c-0.3,0-0.5-0.3-0.5-0.6c0,0,0-0.1,0-0.1
						c0.3-1.3,0-2.7-0.9-3.8l0,0c-0.1-0.1-0.1-0.3,0-0.4C86.1,463.3,86.2,463.4,86.3,463.4z"/>
				</g>
			</g>
		</g>
		<g>
			<g>
				<g>
					<path d="M31.5,460.3c-1.1,0-2.2,0.3-3.3,0.7l0,0c-0.2,0.1-0.3,0-0.4-0.2c-0.1-0.1,0-0.3,0.1-0.4c1.1-0.6,2.2-1,3.5-1.2l0,0
						c0.3,0,0.6,0.2,0.6,0.5C32.1,460,31.9,460.2,31.5,460.3C31.6,460.3,31.5,460.3,31.5,460.3z"/>
				</g>
			</g>
		</g>
		<g>
			<g>
				<g>
					<path d="M31.1,464.1c0.3,0.2,0.6,0.4,0.9,0.7c0.2,0.3,0.5,0.6,0.6,1c0.2,0.4,0.3,0.7,0.3,1.1c0.1,0.4,0,0.8,0,1.2
						c-0.1,0.3-0.4,0.5-0.7,0.4c-0.3-0.1-0.4-0.3-0.4-0.5l0,0c0-0.3,0-0.6,0-0.9c0-0.3-0.1-0.6-0.2-0.9c-0.1-0.3-0.2-0.6-0.3-0.9
						c-0.1-0.3-0.3-0.6-0.5-0.8l0,0c-0.1-0.1,0-0.3,0.1-0.4C30.9,464.1,31,464.1,31.1,464.1z"/>
				</g>
			</g>
		</g>
		<g>
			<g>
				<g>
					<path d="M33.9,462.8c0.4,0.2,0.7,0.4,1,0.7c0.3,0.3,0.6,0.6,0.8,1c0.2,0.4,0.4,0.8,0.4,1.2c0.1,0.4,0.1,0.9,0,1.3
						c0,0.3-0.3,0.5-0.6,0.5c-0.3,0-0.5-0.3-0.5-0.6l0,0c0-0.6-0.1-1.3-0.3-1.9c-0.2-0.6-0.6-1.2-1.2-1.7l0,0
						c-0.1-0.1-0.1-0.3,0-0.4C33.6,462.8,33.8,462.8,33.9,462.8z"/>
				</g>
			</g>
		</g>
		<g>
			<g>
				<g>
					<path class="st0" d="M76.9,431.5c-1.8-0.2-3.5-0.5-5.3-1c-3.1-0.7-6.1-1.7-8.9-2.9c1-1.4,2.1-2.6,3.4-3.7
						c1.8-1.6,3.8-2.9,6-3.8c0.7-0.3,1.5-0.6,2.3-0.3c0.2,0.1,0.4,0.2,0.5,0.4c0.5,0.5,0.7,1.2,0.9,1.8c0.2,0.6,0.3,1.1,0.4,1.7
						C76.7,426.2,77,428.8,76.9,431.5z"/>
				</g>
			</g>
		</g>
		<g>
			<g>
				<g>
					<path d="M76.9,432.1C76.9,432.1,76.8,432.1,76.9,432.1c-1.8-0.2-3.6-0.6-5.4-1c-3-0.7-6-1.7-9-3c-0.2-0.1-0.3-0.2-0.4-0.4
						c-0.1-0.2,0-0.4,0.1-0.5c2.5-3.4,5.8-6.1,9.7-7.8c0.8-0.4,1.8-0.7,2.8-0.3c0.3,0.1,0.5,0.3,0.7,0.5c0.6,0.6,0.9,1.4,1.1,2.1
						c0.9,3.1,1.3,6.4,1.1,9.7c0,0.2-0.1,0.3-0.2,0.5C77.2,432.1,77,432.1,76.9,432.1z M63.6,427.3c2.7,1.1,5.4,2,8.1,2.6
						c1.5,0.4,3,0.7,4.5,0.9c0-3-0.3-5.9-1.1-8.7c-0.1-0.5-0.4-1.2-0.7-1.5c-0.1-0.1-0.2-0.2-0.3-0.2c-0.5-0.2-1.2,0-1.8,0.3
						C68.9,422.1,65.9,424.4,63.6,427.3z"/>
				</g>
			</g>
		</g>
		<g>
			<g>
				<g>
					<path class="st26" d="M76.9,431.5c-0.5-0.1-0.9-0.1-1.4-0.2c-1.3-0.2-2.6-0.5-3.9-0.8c-0.2-2.8,0.3-5.5,1.3-8.1
						c0.2-0.5,0.4-1.1,0.8-1.5c0.1-0.2,0.3-0.3,0.4-0.4c0.2-0.2,0.5-0.3,0.8-0.4c0.5,0.5,0.7,1.2,0.9,1.8
						C76.6,425,77,428.2,76.9,431.5z"/>
				</g>
			</g>
		</g>
		<g class="st27">
			<g>
				<g>
					<path d="M74.9,431.2c-1.3-0.2-2-0.4-3.3-0.7c-0.2-2.8,0.3-5.5,1.3-8.1c0.2-0.5,0.4-1.1,0.8-1.5
						C74.8,423.6,75.2,427.7,74.9,431.2z"/>
				</g>
			</g>
		</g>
		<g>
			<g>
				<g>
					<path d="M76.9,432C76.9,432,76.8,432,76.9,432c-1.8-0.2-3.6-0.6-5.4-1c-0.2-0.1-0.4-0.3-0.4-0.5c-0.2-2.9,0.3-5.6,1.3-8.3
						c0.3-0.8,0.7-1.6,1.4-2.2c0.3-0.2,0.6-0.4,1-0.5c0.2,0,0.4,0,0.5,0.1c0.6,0.6,0.9,1.4,1,2c0.9,3.1,1.3,6.4,1.1,9.7
						c0,0.2-0.1,0.3-0.2,0.4C77.1,432,77,432,76.9,432z M72.1,430.1c1.4,0.3,2.8,0.6,4.2,0.8c0.1-3-0.3-5.9-1.1-8.8
						c-0.1-0.4-0.3-0.9-0.5-1.3c-0.1,0-0.2,0.1-0.3,0.2c-0.5,0.4-0.8,1.1-1,1.7C72.5,425,72,427.5,72.1,430.1z"/>
				</g>
			</g>
		</g>
		<g class="st24">
			<g>
				<g>
					<path d="M76.9,431.5c-1.8-0.2-3.5-0.5-5.3-1c-3.1-0.7-6.1-1.7-8.9-2.9c1-1.4,2.1-2.6,3.4-3.7c3,0.5,7.3,1,10.1-0.2
						C76.7,426.2,77,428.8,76.9,431.5z"/>
				</g>
			</g>
		</g>
		<g>
			<g>
				<g>
					<path class="st5" d="M82.8,452.4c-11.8,9.2-22,6.3-26.5,1.9c-1.4-1.3-2.5-2.8-3.5-4.4c-1-1.8-1.8-3.7-2.1-5.7
						c-0.3-1.8-0.3-3.6,0.1-5.5c0.6-2.6,1.8-5,3.6-7.1c1-1.2,2.2-2.3,3.5-3.2c1.4-0.9,3-1.7,4.6-2.1c5.8-1.6,12.5,0.1,16.5,4.5
						c1.2,1.3,2.2,2.8,3.3,4.1c0.8,0.9,1.7,1.7,2.9,2.5c1,0.7,1.8,1.6,2.2,2.8c0.1,0.3,0.2,0.6,0.2,1c0,0.1,0,0.1,0,0.2
						C88.1,445.5,86.2,449.9,82.8,452.4z"/>
				</g>
			</g>
		</g>
		<g class="st25">
			<g>
				<g>
					<path class="st5" d="M87.8,441.4c-0.6-0.6-1.7-1.5-3.1-2.2c-2.6-1.4-4.7-3.6-6.2-5.4c-1.4-1.6-8.9-9.3-20.4-5.2
						c1.4-0.9,3-1.7,4.6-2.1c5.8-1.6,12.5,0.1,16.5,4.5c1.2,1.3,2.2,2.8,3.3,4.1c0.8,0.9,1.7,1.7,2.9,2.5c1,0.7,1.8,1.6,2.2,2.8
						c0.1,0.3,0.2,0.6,0.2,1C87.8,441.3,87.8,441.3,87.8,441.4z"/>
				</g>
			</g>
		</g>
		<g>
			<g>
				<g>
					<path d="M50.6,444.6c-0.3-1-0.5-2.1-0.5-3.2c0-1.1,0.1-2.2,0.4-3.3l0.1-0.4l0.1-0.2c0-0.1,0-0.1,0.1-0.2l0.3-0.8
						c0.1-0.3,0.2-0.5,0.3-0.8l0.2-0.4c0.1-0.1,0.1-0.2,0.2-0.4l0.4-0.7l0.4-0.7c0.1-0.2,0.3-0.5,0.4-0.7l0.2-0.3
						c0.1-0.1,0.2-0.2,0.2-0.3l0.5-0.6c0.2-0.2,0.4-0.4,0.5-0.6c0.4-0.4,0.8-0.8,1.1-1.2l0.6-0.5c0.1-0.1,0.2-0.2,0.3-0.3l0.3-0.3
						c0.2-0.2,0.4-0.3,0.7-0.5l0.7-0.5l0.2-0.1l0.2-0.1l0.4-0.2c0.2-0.1,0.5-0.3,0.7-0.4l0.7-0.4c0.3-0.1,0.5-0.2,0.8-0.3l0.4-0.2
						l0.4-0.1c0.3-0.1,0.5-0.2,0.8-0.3c0.5-0.1,1.1-0.3,1.6-0.4c4.3-0.8,8.9,0.2,12.6,2.6c0.9,0.6,1.8,1.3,2.6,2.1
						c0.4,0.4,0.8,0.8,1.1,1.2c0.3,0.4,0.7,0.8,1,1.3c0.6,0.8,1.3,1.7,2,2.4c0.7,0.7,1.5,1.4,2.3,1.9c1,0.6,1.8,1.6,2.3,2.7
						c0.1,0.3,0.2,0.6,0.3,0.9c0,0.1,0.1,0.3,0.1,0.4c0,0.1,0,0.3,0,0.4c0,0.3,0,0.6,0,0.8c0,0.3,0,0.6,0,0.8
						c-0.1,2.2-0.8,4.4-2,6.3c-0.6,0.9-1.3,1.8-2,2.6l-0.6,0.6l-0.6,0.5c-0.4,0.3-0.9,0.6-1.3,1c-0.4,0.3-0.9,0.6-1.3,0.9l-0.7,0.4
						l-0.7,0.4c-0.5,0.3-0.9,0.5-1.4,0.8c-0.2,0.1-0.5,0.2-0.7,0.4c-0.2,0.1-0.5,0.2-0.7,0.3c-2,0.9-4.1,1.5-6.2,1.8
						c-1.1,0.1-2.2,0.2-3.3,0.2c-1.1,0-2.2-0.2-3.2-0.4c-2.1-0.5-4.2-1.3-6-2.6c-0.2-0.2-0.4-0.3-0.7-0.5c-0.2-0.2-0.4-0.4-0.6-0.5
						c-0.4-0.4-0.8-0.8-1.1-1.2c-0.7-0.8-1.3-1.7-1.8-2.7c-0.1-0.2,0-0.3,0.1-0.4c0.1-0.1,0.3,0,0.4,0.1l0,0
						c0.7,0.8,1.4,1.5,2.1,2.3c0.7,0.7,1.5,1.4,2.3,2c0.8,0.6,1.7,1.1,2.7,1.5c0.9,0.4,1.9,0.7,2.9,0.9c1,0.2,2,0.3,3,0.3
						c1,0,2,0,3.1-0.2c2-0.3,4-0.9,5.9-1.7c0.2-0.1,0.5-0.2,0.7-0.3c0.2-0.1,0.5-0.2,0.7-0.3c0.5-0.2,0.9-0.5,1.4-0.8l0.7-0.4
						l0.7-0.4c0.4-0.3,0.9-0.6,1.3-0.9c0.4-0.3,0.8-0.6,1.2-0.9l0.6-0.5l0.5-0.5c0.7-0.7,1.3-1.5,1.8-2.4c1-1.7,1.6-3.7,1.7-5.7
						c0-0.2,0-0.5,0-0.7c0-0.2,0-0.5,0-0.7c0-0.1,0-0.2,0-0.3c0-0.1,0-0.2-0.1-0.3c-0.1-0.2-0.1-0.4-0.2-0.6
						c-0.2-0.4-0.4-0.8-0.7-1.2c-0.2-0.2-0.3-0.3-0.5-0.5c-0.2-0.2-0.4-0.3-0.6-0.4c-0.9-0.6-1.8-1.3-2.6-2.1
						c-0.8-0.8-1.4-1.7-2.1-2.5c-0.3-0.4-0.6-0.8-1-1.2c-0.3-0.4-0.7-0.8-1-1.1c-0.7-0.7-1.5-1.3-2.3-1.9c-3.4-2.2-7.6-3.1-11.6-2.4
						c-4,0.7-7.6,3-10.1,6.3c-0.1,0.1-0.2,0.2-0.2,0.3l-0.2,0.3c-0.1,0.2-0.3,0.4-0.4,0.6l-0.4,0.7l-0.3,0.7
						c-0.1,0.1-0.1,0.2-0.2,0.3l-0.1,0.4c-0.1,0.2-0.2,0.5-0.3,0.7l-0.2,0.7c0,0.1,0,0.1-0.1,0.2l0,0.2l-0.1,0.4c-0.3,1-0.4,2-0.5,3
						c-0.1,1-0.1,2,0,3.1l0,0c0,0.2-0.1,0.3-0.3,0.3C50.7,444.9,50.6,444.8,50.6,444.6z"/>
				</g>
			</g>
		</g>
		<g>
			<g>
				<g>
					<path class="st5" d="M66.3,429.4c0,0,0-0.1-0.1-0.1c-1.1-1.9-2.4-3.7-4-5.1c-0.1-0.1-0.3-0.3-0.4-0.4c-0.6-0.4-1.2-0.8-1.9-0.7
						c-1,0.1-1.8,1-2.4,1.9c-2.4,3.8-3.2,8.5-3.3,13"/>
				</g>
			</g>
		</g>
		<g>
			<g>
				<g>
					<path d="M65.6,429.8c-0.5-0.9-1.1-1.8-1.7-2.6c-0.6-0.8-1.3-1.6-2.1-2.3l-0.1-0.1l-0.1-0.1l-0.3-0.2c-0.2-0.2-0.4-0.3-0.6-0.4
						c-0.4-0.2-0.7-0.3-1.1-0.2c-0.3,0.1-0.7,0.4-1,0.7c-0.3,0.3-0.6,0.8-0.8,1.2c-1.1,1.8-1.8,3.8-2.3,5.9c-0.1,0.5-0.2,1-0.3,1.6
						c-0.1,0.5-0.2,1-0.3,1.6c-0.2,1.1-0.3,2.1-0.4,3.2c0,0.2-0.2,0.3-0.3,0.2c-0.1,0-0.2-0.1-0.3-0.3c-0.1-1.1-0.1-2.2,0-3.3
						c0-0.5,0.1-1.1,0.2-1.6c0.1-0.5,0.2-1.1,0.3-1.6c0.5-2.2,1.2-4.3,2.3-6.3c0.3-0.5,0.6-1,1-1.5c0.2-0.2,0.4-0.5,0.7-0.7
						c0.3-0.2,0.6-0.4,0.9-0.5c0.3-0.1,0.7-0.1,1.1-0.1c0.4,0.1,0.7,0.2,1,0.3c0.3,0.1,0.5,0.3,0.8,0.5l0.3,0.3l0.2,0.1l0.2,0.1
						c0.8,0.8,1.6,1.6,2.3,2.5c0.7,0.9,1.3,1.8,1.8,2.8l0,0c0.2,0.3,0,0.7-0.3,0.9C66.1,430.2,65.7,430.1,65.6,429.8z"/>
				</g>
			</g>
		</g>
		<g>
			<g>
				<g>
					<path class="st26" d="M66.1,429.3c-0.7,0.4-1.4,0.8-2,1.3c-1.1,0.9-2.1,1.9-3,3.2c-0.6-2.5-0.8-5.1-0.8-7.7c0-0.1,0-0.1,0-0.2
						c0-0.7,0.1-1.6,0.8-2c0.2-0.1,0.4-0.1,0.5-0.1c0.2,0.1,0.3,0.2,0.4,0.4C63.6,425.6,65,427.4,66.1,429.3z"/>
				</g>
			</g>
		</g>
		<g class="st27">
			<g>
				<g>
					<path d="M64,430.6c-1.1,0.9-2.1,1.9-3,3.2c-0.6-2.5-0.8-5.1-0.8-7.7C61.9,427.1,63.3,428.8,64,430.6z"/>
				</g>
			</g>
		</g>
		<g>
			<g>
				<g>
					<path d="M61.1,434.3C61,434.3,61,434.3,61.1,434.3c-0.3,0-0.5-0.2-0.5-0.4c-0.6-2.6-0.9-5.3-0.8-8c0-0.5,0-1.9,1.1-2.4
						c0.3-0.1,0.5-0.2,0.8-0.2c0.1,0,0.2,0,0.3,0.1c0.1,0.1,0.3,0.2,0.5,0.4c1.7,1.5,3,3.3,4.1,5.3c0.1,0.1,0.1,0.3,0,0.4
						c0,0.1-0.1,0.3-0.3,0.3c-2,1-3.6,2.4-4.8,4.3C61.4,434.2,61.2,434.3,61.1,434.3z M61.4,424.4c0,0-0.1,0-0.1,0
						c-0.3,0.2-0.5,0.6-0.5,1.5c0,2.2,0.2,4.4,0.5,6.6c1.1-1.4,2.4-2.5,4-3.4c-1-1.7-2.2-3.2-3.6-4.5
						C61.6,424.5,61.5,424.4,61.4,424.4z"/>
				</g>
			</g>
		</g>
		<g>
			<g>
				<g>
					<path d="M75.5,439.4c-0.5-0.1-1-0.1-1.4-0.1c-0.4,0-0.9,0.1-1.3,0.3c-0.4,0.2-0.8,0.4-1.1,0.7c-0.3,0.3-0.6,0.7-0.9,1.1l0,0
						c-0.1,0.1-0.3,0.2-0.4,0.1c-0.1-0.1-0.1-0.2-0.1-0.3c0-0.6,0.2-1.2,0.6-1.7c0.4-0.5,0.9-0.9,1.5-1.2c0.6-0.3,1.3-0.3,1.9-0.2
						c0.6,0.1,1.2,0.4,1.6,0.8c0.1,0.1,0.1,0.3,0,0.5C75.7,439.4,75.6,439.4,75.5,439.4L75.5,439.4z"/>
				</g>
			</g>
		</g>
		<g>
			<g>
				<g>
					<path d="M86.1,438c-0.8-0.2-1.6-0.1-2.4,0.3c-0.3,0.2-0.6,0.4-0.8,0.8c-0.2,0.3-0.1,0.8,0.1,1c0.2,0.3,0.6,0.3,1,0.4
						c1.1,0.1,2.4,0,3.5-0.3C87.3,439.3,86.9,438.6,86.1,438"/>
				</g>
			</g>
		</g>
		<g>
			<g>
				<g>
					<path d="M88.1,444.5c-0.1,0.5-0.3,0.9-0.6,1.3c-0.3,0.4-0.6,0.7-1,1c-0.4,0.3-0.9,0.4-1.3,0.5c-0.5,0.1-1,0.1-1.4,0
						c-0.9-0.2-1.8-0.7-2.3-1.4c-0.6-0.7-0.9-1.6-0.8-2.5c0-0.1,0.1-0.2,0.3-0.2c0.1,0,0.2,0.1,0.2,0.2l0,0c0.1,0.8,0.5,1.4,1,1.9
						c0.5,0.5,1.2,0.9,1.9,0.9c0.7,0.1,1.4-0.1,1.9-0.5c0.6-0.4,1-0.9,1.2-1.6l0,0c0.1-0.3,0.4-0.4,0.7-0.3
						C88.1,444,88.2,444.3,88.1,444.5z"/>
				</g>
			</g>
		</g>
		<g>
			<g>
				<g>
					<path d="M78.4,444.3c-2-0.7-4.2-0.5-6.2,0.4c-0.1,0-0.2,0-0.2-0.1c0-0.1,0-0.2,0.1-0.2c1.9-1.2,4.3-1.6,6.6-1l0,0
						c0.2,0.1,0.4,0.3,0.3,0.6C78.9,444.2,78.7,444.3,78.4,444.3C78.4,444.3,78.4,444.3,78.4,444.3z"/>
				</g>
			</g>
		</g>
		<g>
			<g>
				<g>
					<path d="M79.3,446.3c-2.3,0.1-4.5,1-6.4,2.5c-0.1,0.1-0.2,0-0.3,0c-0.1-0.1-0.1-0.2,0-0.2c1.8-1.6,4.1-2.7,6.5-3.1l0,0
						c0.2,0,0.5,0.1,0.5,0.4C79.7,446.1,79.5,446.3,79.3,446.3C79.3,446.3,79.3,446.3,79.3,446.3z"/>
				</g>
			</g>
		</g>
		<g>
			<g>
				<g>
					<path d="M80.5,448c-2,0.9-3.7,2.5-4.8,4.4c-0.1,0.1-0.2,0.1-0.3,0.1c-0.1-0.1-0.1-0.2-0.1-0.3c1-2.1,2.6-3.9,4.7-5.1l0,0
						c0.2-0.1,0.5,0,0.6,0.2C80.9,447.6,80.8,447.9,80.5,448C80.5,448,80.5,448,80.5,448z"/>
				</g>
			</g>
		</g>
		<g>
			<g>
				<g>
					<path d="M84.3,436.9c-0.1-1.8,0.6-3.6,1.9-4.7c0.1-0.1,0.2-0.1,0.3,0c0.1,0.1,0.1,0.2,0,0.2c-1.1,1.2-1.5,2.9-1.2,4.4
						c0,0.2-0.1,0.5-0.4,0.5C84.6,437.4,84.4,437.2,84.3,436.9C84.3,436.9,84.3,436.9,84.3,436.9L84.3,436.9z"/>
				</g>
			</g>
		</g>
		<g>
			<g>
				<g>
					<path d="M86.2,438c0.4-1.6,1.4-3,2.8-3.7c0.1,0,0.2,0,0.3,0.1c0,0.1,0,0.2-0.1,0.2l0,0c-1.2,0.8-1.9,2.2-2.1,3.5
						c0,0.3-0.2,0.4-0.5,0.4C86.3,438.5,86.2,438.3,86.2,438C86.2,438,86.2,438,86.2,438L86.2,438z"/>
				</g>
			</g>
		</g>
		<g>
			<g>
				<g>
					<path d="M87.4,440.3c0.2-0.4,0.4-0.6,0.6-0.9c0.2-0.3,0.5-0.5,0.8-0.7c0.3-0.2,0.6-0.4,0.9-0.6c0.3-0.2,0.6-0.3,1-0.4
						c0.1,0,0.2,0.1,0.2,0.2c0,0.1,0,0.2-0.1,0.2l0,0c-0.3,0.1-0.5,0.2-0.8,0.4c-0.2,0.2-0.5,0.4-0.7,0.6c-0.2,0.2-0.4,0.5-0.6,0.7
						c-0.2,0.2-0.3,0.5-0.4,0.8c-0.1,0.2-0.3,0.4-0.6,0.3C87.4,440.9,87.3,440.6,87.4,440.3C87.4,440.4,87.4,440.3,87.4,440.3
						L87.4,440.3z"/>
				</g>
			</g>
		</g>
		<g>
			<g>
				<g>
					<path d="M43.1,406.6c-1.7,0-3.4-0.9-4.1-2.4c-0.4-0.8-0.5-1.6-0.6-2.4c-0.1-0.7-0.2-1.4-0.5-2c-0.2-0.4-0.6-0.8-1-1
						c-0.1,0-0.1-0.1-0.2-0.2c0,0-0.1-0.1-0.1-0.1c-0.3-0.3-0.6-0.5-1-0.7c-0.5-0.3-0.9-0.6-1.3-1c-1.4-1.5-1.4-4.1,0.1-5.7
						c0.6-0.7,1.4-1.2,2.4-1.4c0.1,0,0.1,0,0.2,0l0.1,0c3.7-0.3,7.3,1.1,9.6,3.5c2.6,2.8,3.2,6.9,1.6,10l0,0
						c-0.9,1.8-2.5,3.1-4.3,3.4C43.7,406.5,43.4,406.6,43.1,406.6z M37.7,397.5c0.7,0.4,1.2,0.9,1.5,1.5c0.4,0.8,0.5,1.7,0.6,2.5
						c0.1,0.7,0.2,1.4,0.4,1.9c0.5,1.1,2.1,1.8,3.4,1.5c1.3-0.3,2.5-1.3,3.2-2.7c0,0,0,0,0,0c1.3-2.5,0.7-6-1.4-8.3
						c-2-2.1-5.1-3.3-8.4-3l-0.1,0c-0.7,0.2-1.2,0.6-1.7,1c-1,1.1-1,2.8-0.2,3.7c0.3,0.3,0.7,0.5,1.1,0.8c0.4,0.3,0.8,0.5,1.2,0.9
						C37.7,397.4,37.7,397.5,37.7,397.5z"/>
				</g>
			</g>
		</g>
		<g class="st24">
			<g>
				<g>
					<path d="M89.2,466.4c-0.5,0.8-1.5,1.6-2.5,1.9c-1.4,0.5-2.9,0.5-4.4,0.4c-3.1-0.1-6.3-0.2-9.4-0.2c-4.7-0.1-9.3-0.2-14-0.4
						c-1.2,0-2.3-0.1-3.5-0.1c-6.7-0.2-14-0.6-18.9-5.1c0.9,1.2,0.6,3.4-0.7,4.4c-1.2,1-3,1.2-4.6,1.1c-4.8-0.4-9.4-2.6-12.9-5.9
						c-3.5-3.3-6-7.6-7.6-12.1c-0.5-1.5-0.9-3.1-1.2-4.7c-0.9-4.6-0.7-9.4,0.7-13.8c1.1-3.3,2.9-6.5,5.4-9
						c-4.3,10.5-2.8,26.5,4.2,32.1c9.9,8,6.3-8,6.3-8s7.1-2.4,9.3-13.1c0,0,4.8,8.5,1.1,16.6c-0.6,1.4-0.3,3,0.8,4
						c2.2,2.1,6.2,5.1,10.6,5.1c0,0,10.9,6.3,27.5,6C81.3,465.6,85.9,465.9,89.2,466.4z"/>
				</g>
			</g>
		</g>
		<g class="st24">
			<g>
				<g>
					<path d="M82.8,452.4c-11.8,9.2-22,6.3-26.5,1.9c-1.4-1.3-2.5-2.8-3.5-4.4c-1-1.8-1.8-3.7-2.1-5.7c-0.3-1.8-0.3-3.6,0.1-5.5
						c0.6-2.6,1.8-5,3.6-7.1c-1.4,10.2,1.3,22.5,13.5,22.5c13,0,17.8-7.9,19.5-14c0.1,0.3,0.2,0.6,0.2,1
						C88.2,445.4,86.2,449.8,82.8,452.4z"/>
				</g>
			</g>
		</g>
		<g class="st24">
			<g>
				<g>
					<path d="M47.6,402.7c-0.8,1.5-2.1,2.7-3.8,3c-1.6,0.3-3.5-0.4-4.2-1.9c-0.7-1.4-0.3-3.1-1-4.4c-0.3-0.6-0.8-1-1.3-1.3
						c-1.6-0.8-4-0.5-5.6,0.6c-3,2-4.6,5.6-4.7,9.2c-0.1,3.3,0.9,6.5,2.7,9.4c-0.2-0.1-0.4-0.1-0.6-0.2c-6.2-2.8-6.9-19,4-22.4
						c9.1-2.8,6.9,6.5,11,6.6c3.6,0.1,3.3-3.4,3.7-4.9C48.6,398.3,48.7,400.7,47.6,402.7z"/>
				</g>
			</g>
		</g>
	</g>
</g>

</svg>
